# xmcd
#
# Track frame offsets: 
#        150
#        577
#        16800
#        18007
#        33042
#        51717
#        66402
#        93945
#        117070
#        133270
#        160197
#        162507
#        182322
#        200117
#        202615
#
# Disc length: 3215 seconds
#
# Revision: 4
# Processed by: cddbd v1.5.2PL0 Copyright (c) Steve Scherf et al.
# Submitted via: ExactAudioCopy v1.0b3
#
DISCID=b90c8d0f
DTITLE=Chris Thomas - 21st Century Blues...From Da 'Hood
DYEAR=1994
DGENRE=Rap
TTITLE0=Intro
TTITLE1=21cb
TTITLE2=Hellbounds
TTITLE3=Kkkkrossroads
TTITLE4=Kickin?true blue
TTITLE5=Up from da underground
TTITLE6=Blues from da hood
TTITLE7=Da gambler
TTITLE8=Time bomb
TTITLE9=Homesick blues
TTITLE10=Phone interlude
TTITLE11=My pain
TTITLE12=Kill somebody
TTITLE13=Anotherdeadhomie
TTITLE14=Stop
EXTD=
EXTT0=
EXTT1=
EXTT2=
EXTT3=
EXTT4=
EXTT5=
EXTT6=
EXTT7=
EXTT8=
EXTT9=
EXTT10=
EXTT11=
EXTT12=
EXTT13=
EXTT14=
PLAYORDER=
